<svg id="visual" viewBox="0 0 1920 160" width="1920" height="160" xmlns="http://www.w3.org/2000/svg" xmlns:xlink="http://www.w3.org/1999/xlink" version="1.1"><rect x="0" y="0" width="1920" height="160" fill="#1C658C"></rect><path d="M0 77L22.8 71.3C45.7 65.7 91.3 54.3 137 48.3C182.7 42.3 228.3 41.7 274 51C319.7 60.3 365.3 79.7 411.2 84C457 88.3 503 77.7 548.8 70.8C594.7 64 640.3 61 686 64.7C731.7 68.3 777.3 78.7 823 81.2C868.7 83.7 914.3 78.3 960 74.8C1005.7 71.3 1051.3 69.7 1097 69.3C1142.7 69 1188.3 70 1234 71.2C1279.7 72.3 1325.3 73.7 1371.2 79.7C1417 85.7 1463 96.3 1508.8 103.2C1554.7 110 1600.3 113 1646 105.8C1691.7 98.7 1737.3 81.3 1783 70.7C1828.7 60 1874.3 56 1897.2 54L1920 52L1920 0L1897.2 0C1874.3 0 1828.7 0 1783 0C1737.3 0 1691.7 0 1646 0C1600.3 0 1554.7 0 1508.8 0C1463 0 1417 0 1371.2 0C1325.3 0 1279.7 0 1234 0C1188.3 0 1142.7 0 1097 0C1051.3 0 1005.7 0 960 0C914.3 0 868.7 0 823 0C777.3 0 731.7 0 686 0C640.3 0 594.7 0 548.8 0C503 0 457 0 411.2 0C365.3 0 319.7 0 274 0C228.3 0 182.7 0 137 0C91.3 0 45.7 0 22.8 0L0 0Z" fill="#398AB9" stroke-linecap="round" stroke-linejoin="miter"></path></svg>