<svg id="visual" viewBox="0 0 1920 470" width="1920" height="470" xmlns="http://www.w3.org/2000/svg" xmlns:xlink="http://www.w3.org/1999/xlink" version="1.1"><rect x="0" y="0" width="1920" height="470" fill="#1C658C"></rect><path d="M0 152L13.8 182C27.7 212 55.3 272 83.2 271.5C111 271 139 210 166.8 200.7C194.7 191.3 222.3 233.7 250.2 259.7C278 285.7 306 295.3 333.8 290.3C361.7 285.3 389.3 265.7 417.2 260.5C445 255.3 473 264.7 500.8 266.3C528.7 268 556.3 262 584.2 243.8C612 225.7 640 195.3 667.8 173.2C695.7 151 723.3 137 751.2 147C779 157 807 191 834.8 224.8C862.7 258.7 890.3 292.3 918.2 288C946 283.7 974 241.3 1001.8 233.2C1029.7 225 1057.3 251 1085.2 265.5C1113 280 1141 283 1168.8 283.7C1196.7 284.3 1224.3 282.7 1252.2 274.5C1280 266.3 1308 251.7 1335.8 256C1363.7 260.3 1391.3 283.7 1419.2 296.7C1447 309.7 1475 312.3 1502.8 308.5C1530.7 304.7 1558.3 294.3 1586.2 292.5C1614 290.7 1642 297.3 1669.8 284C1697.7 270.7 1725.3 237.3 1753.2 222.7C1781 208 1809 212 1836.8 218.7C1864.7 225.3 1892.3 234.7 1906.2 239.3L1920 244L1920 471L1906.2 471C1892.3 471 1864.7 471 1836.8 471C1809 471 1781 471 1753.2 471C1725.3 471 1697.7 471 1669.8 471C1642 471 1614 471 1586.2 471C1558.3 471 1530.7 471 1502.8 471C1475 471 1447 471 1419.2 471C1391.3 471 1363.7 471 1335.8 471C1308 471 1280 471 1252.2 471C1224.3 471 1196.7 471 1168.8 471C1141 471 1113 471 1085.2 471C1057.3 471 1029.7 471 1001.8 471C974 471 946 471 918.2 471C890.3 471 862.7 471 834.8 471C807 471 779 471 751.2 471C723.3 471 695.7 471 667.8 471C640 471 612 471 584.2 471C556.3 471 528.7 471 500.8 471C473 471 445 471 417.2 471C389.3 471 361.7 471 333.8 471C306 471 278 471 250.2 471C222.3 471 194.7 471 166.8 471C139 471 111 471 83.2 471C55.3 471 27.7 471 13.8 471L0 471Z" fill="#398AB9" stroke-linecap="round" stroke-linejoin="miter"></path></svg>