<svg width="49" height="38" viewBox="0 0 49 38" fill="none" xmlns="http://www.w3.org/2000/svg">
<path d="M40.8333 19C39.2 17.7334 36.5458 17.7334 35.1167 19L28.5833 23.9084V6.33335C28.5833 4.59169 26.7458 3.16669 24.5 3.16669C22.2542 3.16669 20.4167 4.59169 20.4167 6.33335V24.0667L13.8833 19C12.25 17.7334 9.59583 17.7334 8.16667 19C6.53333 20.2667 6.53333 22.1667 8.16667 23.4334L21.6417 33.8834C22.4583 34.5167 23.4792 34.8334 24.5 34.8334C25.5208 34.8334 26.5417 34.5167 27.3583 33.8834L40.6292 23.5917C42.4667 22.325 42.4667 20.2667 40.8333 19Z" fill="white"/>
</svg>
