<svg width="19" height="19" viewBox="0 0 19 19" fill="none" xmlns="http://www.w3.org/2000/svg">
<path d="M9.3833 0.501259C4.4133 0.501259 0.383301 4.53126 0.383301 9.50126C0.383301 14.4713 4.4133 18.5013 9.3833 18.5013C14.3533 18.5013 18.3833 14.4713 18.3833 9.50126C18.3833 4.53126 14.3533 0.501259 9.3833 0.501259ZM13.3833 10.5013L10.3833 10.5013L10.3833 13.6313C10.3833 14.1113 9.9933 14.5113 9.5033 14.5113L9.2533 14.5113C8.7733 14.5013 8.3833 14.1113 8.3833 13.6313L8.3833 10.5013L5.3833 10.5013C4.8333 10.5013 4.3833 10.0513 4.3833 9.50126C4.3833 8.95126 4.8333 8.50126 5.3833 8.50126L8.3833 8.50126L8.3833 5.38126C8.3833 4.89126 8.7733 4.50126 9.2633 4.50126L9.5133 4.50126C9.9933 4.50126 10.3833 4.89126 10.3833 5.38126L10.3833 8.50126L13.3833 8.50126C13.9333 8.50126 14.3833 8.95126 14.3833 9.50126C14.3833 10.0513 13.9333 10.5013 13.3833 10.5013Z" fill="white"/>
</svg>
